<?xml version="1.0" encoding="UTF-8"?> <svg xmlns="http://www.w3.org/2000/svg" width="891" height="704" viewBox="0 0 891 704" fill="none"><path fill-rule="evenodd" clip-rule="evenodd" d="M565 652.986V623.782L556.963 623.791L556.614 295.394C556.612 290.038 558.69 285 562.473 281.209C566.256 277.419 571.289 275.327 576.645 275.322L667.614 275.224C678.649 275.224 687.639 284.196 687.665 295.23L687.791 414H716.993L716.868 295.228C716.868 295.212 716.866 295.199 716.866 295.183L716.606 49.3677C716.6 44.0107 718.679 38.9718 722.463 35.1818C726.248 31.39 731.279 29.2989 736.635 29.2935L827.584 29.1977H827.607C832.953 29.1977 837.982 31.2761 841.766 35.0553C845.558 38.8399 847.651 43.8715 847.654 49.2303L847.779 160.411C847.788 168.468 854.322 174.993 862.377 174.993H862.395C870.458 174.984 876.986 168.441 876.977 160.377L876.852 49.1978C876.836 36.0421 871.703 23.6817 862.39 14.3883C853.091 5.10756 840.741 0 827.609 0H827.555L736.606 0.0957781C723.45 0.112044 711.088 5.24671 701.794 14.5582C692.503 23.8696 687.392 36.2463 687.408 49.3984L687.621 250.307C681.491 247.568 674.706 246.032 667.565 246.032L576.616 246.13C569.589 246.137 562.795 247.619 556.569 250.404L556.531 213.032C556.5 185.904 534.409 163.838 507.23 163.838L416.281 163.934C389.125 163.964 367.056 186.081 367.088 213.236L367.246 362.313C361.115 359.575 354.33 358.037 347.189 358.037L256.242 358.135C249.215 358.142 242.419 359.626 236.193 362.411L236.15 321.399C236.119 294.27 214.028 272.204 186.849 272.204L95.9014 272.302C82.7458 272.316 70.3835 277.453 61.0901 286.763C51.7986 296.074 46.6874 308.449 46.7019 321.603L47.0254 624.342L39.5339 624.349C28.9609 624.359 19.026 628.487 11.5598 635.971C4.09367 643.455 -0.0126223 653.397 2.91471e-05 663.967C0.0217173 685.778 17.7699 703.506 39.5773 703.504H39.6171L565 702.943V673.746L39.5881 674.306H39.5773C33.8589 674.306 29.2049 669.658 29.1995 663.939C29.1959 661.165 30.2731 658.557 32.2322 656.598C34.1896 654.635 36.794 653.554 39.5664 653.553L172.527 653.41L221.906 653.352L382.154 653.18L461.471 653.097L565 652.986ZM848.038 414H877.235L877.02 211.647C877.011 203.589 870.478 197.064 862.422 197.064H862.406C854.342 197.073 847.813 203.616 847.823 211.678L848.038 414ZM76.2267 624.302L172.157 624.201L207.274 624.163L207.089 448.992L206.954 321.424C206.941 310.379 197.948 301.395 186.903 301.395L95.9358 301.492C90.5806 301.5 85.5471 303.589 81.7626 307.379C77.978 311.169 75.8995 316.208 75.905 321.565L76.2267 624.302ZM236.473 624.133L348.068 624.013L367.524 623.992L367.475 578.166L367.293 407.26C367.28 396.214 358.287 387.229 347.242 387.229L256.274 387.327C245.217 387.338 236.233 396.342 236.244 407.399L236.473 624.133ZM396.72 623.963L461.8 623.892L527.765 623.822L527.628 493.583L527.329 213.057C527.317 202.012 518.323 193.028 507.279 193.028L416.31 193.124C405.256 193.135 396.273 202.143 396.282 213.2L396.72 623.963Z" fill="#003566"></path><path d="M843.788 475H649.126C642.394 475 636.957 469.639 636.957 463C636.957 456.367 642.394 451 649.126 451H843.788C850.514 451 855.957 456.367 855.957 463C855.957 469.639 850.514 475 843.788 475Z" fill="#003566"></path><path d="M746.457 692C740.095 692 734.957 686.595 734.957 679.915V426.085C734.957 419.405 740.095 414 746.457 414C752.813 414 757.957 419.405 757.957 426.085V679.915C757.957 686.595 752.813 692 746.457 692Z" fill="#003566"></path><path d="M818.954 692H674.96C668.32 692 662.957 686.633 662.957 680C662.957 673.361 668.32 668 674.96 668H818.954C825.588 668 830.957 673.361 830.957 680C830.957 686.633 825.588 692 818.954 692Z" fill="#003566"></path><path d="M649.957 631C623.484 631 601.957 610.185 601.957 584.6C601.957 578.183 607.318 573 613.957 573C620.596 573 625.957 578.183 625.957 584.6C625.957 597.389 636.721 607.8 649.957 607.8C663.193 607.8 673.957 597.389 673.957 584.6C673.957 578.183 679.318 573 685.957 573C692.596 573 697.957 578.183 697.957 584.6C697.957 610.185 676.43 631 649.957 631Z" fill="#003566"></path><path d="M685.957 596H613.957C607.318 596 601.957 590.856 601.957 584.5C601.957 578.138 607.318 573 613.957 573H685.957C692.596 573 697.957 578.138 697.957 584.5C697.957 590.856 692.596 596 685.957 596Z" fill="#003566"></path><path d="M614.159 596C612.997 596 611.83 595.829 610.656 595.493C604.205 593.57 600.542 586.839 602.472 580.45L639.069 459.615C640.999 453.22 647.765 449.61 654.258 451.503C660.709 453.427 664.372 460.157 662.442 466.546L625.845 587.382C624.261 592.626 619.418 596 614.159 596Z" fill="#003566"></path><path d="M685.755 596C680.496 596 675.653 592.626 674.069 587.382L637.472 466.546C635.542 460.157 639.205 453.427 645.656 451.503C652.113 449.61 658.915 453.22 660.845 459.615L697.442 580.45C699.372 586.839 695.709 593.57 689.258 595.493C688.084 595.841 686.917 596 685.755 596Z" fill="#003566"></path><path d="M842.957 631C816.484 631 794.957 610.185 794.957 584.6C794.957 578.183 800.318 573 806.957 573C813.59 573 818.957 578.183 818.957 584.6C818.957 597.389 829.721 607.8 842.957 607.8C856.193 607.8 866.957 597.389 866.957 584.6C866.957 578.183 872.318 573 878.957 573C885.59 573 890.957 578.183 890.957 584.6C890.957 610.185 869.43 631 842.957 631Z" fill="#003566"></path><path d="M878.957 596H806.957C800.318 596 794.957 590.856 794.957 584.5C794.957 578.138 800.318 573 806.957 573H878.957C885.59 573 890.957 578.138 890.957 584.5C890.957 590.856 885.59 596 878.957 596Z" fill="#003566"></path><path d="M807.159 596C805.997 596 804.83 595.829 803.656 595.493C797.205 593.57 793.542 586.839 795.472 580.45L832.07 459.615C833.994 453.22 840.791 449.61 847.26 451.503C853.711 453.427 857.368 460.157 855.444 466.546L818.846 587.382C817.262 592.626 812.413 596 807.159 596Z" fill="#003566"></path><path d="M878.957 596C873.784 596 869.02 592.626 867.462 587.382L831.463 466.546C829.565 460.157 833.168 453.427 839.514 451.503C845.889 449.61 852.544 453.22 854.455 459.615L890.453 580.45C892.345 586.839 888.748 593.57 882.402 595.493C881.248 595.841 880.094 596 878.957 596Z" fill="#003566"></path></svg> 