<?xml version="1.0" encoding="UTF-8"?> <svg xmlns="http://www.w3.org/2000/svg" width="512" height="416" viewBox="0 0 512 416" fill="none"><path d="M31.8887 392.114C27.4665 392.114 23.8882 388.535 23.8882 384.113V215.982C23.8882 211.556 27.4665 207.981 31.8887 207.981C36.3147 207.981 39.8891 211.556 39.8891 215.982V384.113C39.8891 388.527 36.3147 392.114 31.8887 392.114Z" fill="#003566"></path><path d="M343.861 415.978H55.8901C51.4679 415.978 47.8896 412.4 47.8896 407.978C47.8896 403.552 51.4679 399.977 55.8901 399.977H343.861C348.287 399.977 351.861 403.552 351.861 407.978C351.861 412.4 348.287 415.978 343.861 415.978Z" fill="#003566"></path><path d="M279.954 16.001H159.947C155.521 16.001 151.947 12.4265 151.947 8.00048C151.947 3.57834 155.521 0 159.947 0H279.954C284.377 0 287.955 3.57834 287.955 8.00048C287.955 12.4265 284.377 16.001 279.954 16.001Z" fill="#003566"></path><path d="M151.947 24.0014C147.521 24.0014 143.946 20.427 143.946 16.001C143.946 7.17621 151.122 0 159.947 0C164.369 0 167.948 3.57834 167.948 8.00048C167.948 12.4265 164.369 16.001 159.947 16.001C159.947 20.427 156.369 24.0014 151.947 24.0014Z" fill="#003566"></path><path d="M287.955 24.0014C283.529 24.0014 279.954 20.427 279.954 16.001V15.9853C275.528 15.9853 271.954 12.4187 271.954 7.99267C271.954 3.57834 275.528 0 279.954 0C288.779 0 295.955 7.17621 295.955 16.001C295.955 20.427 292.377 24.0014 287.955 24.0014Z" fill="#003566"></path><path d="M287.955 48.0029C283.529 48.0029 279.954 44.4285 279.954 40.0024V16.001C279.954 11.5788 283.529 8.00049 287.955 8.00049C292.377 8.00049 295.955 11.5788 295.955 16.001V40.0024C295.955 44.4285 292.377 48.0029 287.955 48.0029Z" fill="#003566"></path><path d="M151.947 48.0029C147.521 48.0029 143.946 44.4285 143.946 40.0024V16.001C143.946 11.5788 147.521 8.00049 151.947 8.00049C156.369 8.00049 159.947 11.5788 159.947 16.001V40.0024C159.947 44.4285 156.369 48.0029 151.947 48.0029Z" fill="#003566"></path><path d="M287.955 48.0029H151.947C147.521 48.0029 143.946 44.4285 143.946 40.0024C143.946 35.5803 147.521 32.002 151.947 32.002H287.955C292.377 32.002 295.955 35.5803 295.955 40.0024C295.955 44.4285 292.377 48.0029 287.955 48.0029Z" fill="#003566"></path><path d="M287.955 80.0048C283.529 80.0048 279.954 76.4304 279.954 72.0044V40.0024C279.954 35.5803 283.529 32.002 287.955 32.002C292.377 32.002 295.955 35.5803 295.955 40.0024V72.0044C295.955 76.4304 292.377 80.0048 287.955 80.0048Z" fill="#003566"></path><path d="M255.953 80.0048C251.527 80.0048 247.952 76.4304 247.952 72.0044V40.0024C247.952 35.5803 251.527 32.002 255.953 32.002C260.375 32.002 263.953 35.5803 263.953 40.0024V72.0044C263.953 76.4304 260.375 80.0048 255.953 80.0048Z" fill="#003566"></path><path d="M183.949 80.0048C179.523 80.0048 175.948 76.4304 175.948 72.0044V40.0024C175.948 35.5803 179.523 32.002 183.949 32.002C188.371 32.002 191.949 35.5803 191.949 40.0024V72.0044C191.949 76.4304 188.371 80.0048 183.949 80.0048Z" fill="#003566"></path><path d="M151.947 80.0048C147.521 80.0048 143.946 76.4304 143.946 72.0044V40.0024C143.946 35.5803 147.521 32.002 151.947 32.002C156.369 32.002 159.947 35.5803 159.947 40.0024V72.0044C159.947 76.4304 156.369 80.0048 151.947 80.0048Z" fill="#003566"></path><path d="M375.894 56.0034H319.89C315.468 56.0034 311.89 52.429 311.89 48.0029C311.89 43.5808 315.468 40.0024 319.89 40.0024H375.894C380.32 40.0024 383.894 43.5808 383.894 48.0029C383.894 52.429 380.32 56.0034 375.894 56.0034Z" fill="#003566"></path><path d="M319.89 80.0049C315.468 80.0049 311.89 76.4304 311.89 72.0044V48.0029C311.89 43.5808 315.468 40.0024 319.89 40.0024C324.316 40.0024 327.891 43.5808 327.891 48.0029V72.0044C327.891 76.4304 324.316 80.0049 319.89 80.0049Z" fill="#003566"></path><path d="M120.007 56.0034H64.0038C59.5778 56.0034 56.0034 52.429 56.0034 48.0029C56.0034 43.5808 59.5778 40.0024 64.0038 40.0024H120.007C124.433 40.0024 128.008 43.5808 128.008 48.0029C128.008 52.429 124.433 56.0034 120.007 56.0034Z" fill="#003566"></path><path d="M64.0038 80.0049C59.5778 80.0049 56.0034 76.4304 56.0034 72.0044V48.0029C56.0034 43.5808 59.5778 40.0024 64.0038 40.0024C68.4299 40.0024 72.0043 43.5808 72.0043 48.0029V72.0044C72.0043 76.4304 68.4299 80.0049 64.0038 80.0049Z" fill="#003566"></path><path d="M120.07 80.0049C115.648 80.0049 112.069 76.4304 112.069 72.0044V48.0029C112.069 43.5808 115.648 40.0024 120.07 40.0024C124.496 40.0024 128.07 43.5808 128.07 48.0029V72.0044C128.07 76.4304 124.496 80.0049 120.07 80.0049Z" fill="#003566"></path><path d="M247.952 271.993H191.949C187.523 271.993 183.949 268.415 183.949 263.992V167.987C183.949 163.561 187.523 159.986 191.949 159.986H247.952C252.375 159.986 255.953 163.561 255.953 167.987V263.992C255.953 268.415 252.375 271.993 247.952 271.993ZM199.95 255.992H239.952V175.987H199.95V255.992Z" fill="#003566"></path><path d="M219.951 239.991C215.525 239.991 211.95 236.413 211.95 231.991V199.989C211.95 195.563 215.525 191.988 219.951 191.988C224.373 191.988 227.951 195.563 227.951 199.989V231.991C227.951 236.413 224.373 239.991 219.951 239.991Z" fill="#003566"></path><path d="M431.897 223.99C427.475 223.99 423.897 220.412 423.897 215.99V112.007C423.897 107.585 427.475 104.006 431.897 104.006C436.323 104.006 439.898 107.585 439.898 112.007V215.99C439.898 220.412 436.323 223.99 431.897 223.99Z" fill="#003566"></path><path d="M431.897 223.99H247.784C243.358 223.99 239.784 220.412 239.784 215.99C239.784 211.564 243.358 207.989 247.784 207.989H431.905C436.331 207.989 439.905 211.564 439.905 215.99C439.905 220.412 436.323 223.99 431.897 223.99Z" fill="#003566"></path><path d="M375.894 80.0049C371.472 80.0049 367.893 76.4304 367.893 72.0044V48.0029C367.893 43.5808 371.472 40.0024 375.894 40.0024C380.32 40.0024 383.894 43.5808 383.894 48.0029V72.0044C383.894 76.4304 380.32 80.0049 375.894 80.0049Z" fill="#003566"></path><path d="M431.897 120.007C427.475 120.007 423.897 116.433 423.897 112.007C423.897 94.3572 409.544 80.0048 391.895 80.0048C387.473 80.0048 383.894 76.4304 383.894 72.0043C383.894 67.5822 387.473 64.0038 391.895 64.0038C418.369 64.0038 439.898 85.5325 439.898 112.007C439.898 116.433 436.323 120.007 431.897 120.007Z" fill="#003566"></path><path d="M8.00048 223.99C3.57443 223.99 0 220.412 0 215.99V112.007C0 107.585 3.57443 104.006 8.00048 104.006C12.4265 104.006 16.001 107.585 16.001 112.007V215.99C16.001 220.412 12.4265 223.99 8.00048 223.99Z" fill="#003566"></path><path d="M192.109 223.99H8.00048C3.57443 223.99 0 220.412 0 215.99C0 211.564 3.57443 207.989 8.00048 207.989H192.109C196.531 207.989 200.11 211.564 200.11 215.99C200.11 220.412 196.524 223.99 192.109 223.99Z" fill="#003566"></path><path d="M8.00048 120.007C3.57443 120.007 0 116.433 0 112.007C0 85.5325 21.5286 64.0038 48.0029 64.0038C52.4289 64.0038 56.0034 67.5822 56.0034 72.0043C56.0034 76.4304 52.4289 80.0048 48.0029 80.0048C30.3534 80.0048 16.001 94.3572 16.001 112.007C16.001 116.433 12.4265 120.007 8.00048 120.007Z" fill="#003566"></path><path d="M55.8901 415.978C38.2406 415.978 23.8882 401.626 23.8882 383.976C23.8882 379.55 27.4665 375.976 31.8887 375.976C36.3147 375.976 39.8891 379.55 39.8891 383.976C39.8891 392.801 47.0654 399.977 55.8901 399.977C60.3162 399.977 63.8906 403.552 63.8906 407.978C63.8906 412.4 60.3162 415.978 55.8901 415.978Z" fill="#003566"></path><path d="M391.895 80.0048H48.0029C43.5769 80.0048 40.0024 76.4304 40.0024 72.0043C40.0024 67.5822 43.5769 64.0038 48.0029 64.0038H391.895C396.321 64.0038 399.895 67.5822 399.895 72.0043C399.895 76.4304 396.321 80.0048 391.895 80.0048Z" fill="#003566"></path><path d="M479.998 271.911H352.021C347.595 271.911 344.021 268.337 344.021 263.91C344.021 259.488 347.595 255.91 352.021 255.91H479.998C484.42 255.91 487.998 259.488 487.998 263.91C487.998 268.337 484.42 271.911 479.998 271.911Z" fill="#003566"></path><path d="M416.009 415.947C411.583 415.947 408.009 412.369 408.009 407.946V239.909C408.009 235.487 411.583 231.909 416.009 231.909C420.432 231.909 424.01 235.487 424.01 239.909V407.946C424.01 412.369 420.432 415.947 416.009 415.947Z" fill="#003566"></path><path d="M463.997 415.947H368.022C363.596 415.947 360.022 412.369 360.022 407.946C360.022 403.52 363.596 399.946 368.022 399.946H463.997C468.419 399.946 471.997 403.52 471.997 407.946C471.997 412.369 468.419 415.947 463.997 415.947Z" fill="#003566"></path><path d="M352.021 375.937C334.372 375.937 320.019 361.58 320.019 343.935C320.019 339.509 323.594 335.934 328.02 335.934C332.446 335.934 336.02 339.509 336.02 343.935C336.02 352.756 343.196 359.936 352.021 359.936C360.846 359.936 368.022 352.756 368.022 343.935C368.022 339.509 371.597 335.934 376.023 335.934C380.449 335.934 384.023 339.509 384.023 343.935C384.023 361.58 369.671 375.937 352.021 375.937Z" fill="#003566"></path><path d="M376.023 351.935H328.02C323.594 351.935 320.019 348.357 320.019 343.935C320.019 339.509 323.594 335.934 328.02 335.934H376.023C380.449 335.934 384.023 339.509 384.023 343.935C384.023 348.357 380.449 351.935 376.023 351.935Z" fill="#003566"></path><path d="M328.02 351.935C327.258 351.935 326.492 351.822 325.723 351.599C321.492 350.326 319.09 345.869 320.355 341.638L344.357 261.617C345.622 257.383 350.06 254.992 354.318 256.246C358.549 257.519 360.951 261.977 359.686 266.207L335.684 346.228C334.645 349.701 331.469 351.935 328.02 351.935Z" fill="#003566"></path><path d="M376.023 351.935C372.573 351.935 369.397 349.701 368.358 346.228L344.357 266.207C343.091 261.977 345.493 257.519 349.724 256.246C353.959 254.992 358.42 257.383 359.686 261.617L383.687 341.638C384.953 345.869 382.55 350.326 378.32 351.599C377.55 351.83 376.784 351.935 376.023 351.935Z" fill="#003566"></path><path d="M479.998 375.937C462.348 375.937 447.996 361.58 447.996 343.935C447.996 339.509 451.57 335.934 455.996 335.934C460.418 335.934 463.997 339.509 463.997 343.935C463.997 352.756 471.173 359.936 479.998 359.936C488.822 359.936 495.999 352.756 495.999 343.935C495.999 339.509 499.573 335.934 503.999 335.934C508.421 335.934 512 339.509 512 343.935C512 361.58 497.647 375.937 479.998 375.937Z" fill="#003566"></path><path d="M503.999 351.935H455.996C451.57 351.935 447.996 348.357 447.996 343.935C447.996 339.509 451.57 335.934 455.996 335.934H503.999C508.421 335.934 512 339.509 512 343.935C512 348.357 508.421 351.935 503.999 351.935Z" fill="#003566"></path><path d="M455.996 351.935C455.234 351.935 454.469 351.822 453.699 351.599C449.468 350.326 447.066 345.869 448.332 341.638L472.333 261.617C473.595 257.383 478.052 254.992 482.295 256.246C486.525 257.519 488.924 261.977 487.662 266.207L463.661 346.228C462.622 349.701 459.442 351.935 455.996 351.935Z" fill="#003566"></path><path d="M503.999 351.935C500.55 351.935 497.374 349.701 496.335 346.228L472.333 266.207C471.067 261.977 473.47 257.519 477.701 256.246C481.951 254.992 486.389 257.383 487.662 261.617L511.664 341.638C512.925 345.869 510.527 350.326 506.296 351.599C505.527 351.83 504.757 351.935 503.999 351.935Z" fill="#003566"></path></svg> 