<?xml version="1.0" encoding="UTF-8"?> <svg xmlns="http://www.w3.org/2000/svg" width="508" height="512" viewBox="0 0 508 512" fill="none"><path d="M254 511.857C259.523 511.857 264 507.38 264 501.857C264 496.334 259.523 491.857 254 491.857C248.477 491.857 244 496.334 244 501.857C244 507.38 248.477 511.857 254 511.857Z" fill="#003566"></path><path d="M497.841 450.416H468.84V418.788C468.84 413.192 464.366 408.656 458.847 408.656H424.389V232.571H435.489C441.008 232.571 445.482 228.035 445.482 222.439V191.143H487.086C491.42 191.143 495.259 188.311 496.594 184.131C497.929 179.951 496.453 175.375 492.942 172.801L259.856 1.92101C256.36 -0.640988 251.64 -0.640988 248.144 1.92101L15.057 172.801C11.546 175.375 10.071 179.951 11.405 184.131C12.74 188.311 16.579 191.143 20.913 191.143H62.517V222.439C62.517 228.035 66.991 232.571 72.51 232.571H83.61V408.657H49.153C43.634 408.657 39.16 413.193 39.16 418.789V450.417H10.159C4.64002 450.417 0.166016 454.953 0.166016 460.549V501.869C0.166016 507.465 4.64002 512.001 10.159 512.001H209.779C215.298 512.001 219.772 507.465 219.772 501.869C219.772 496.273 215.298 491.737 209.779 491.737H20.152V470.68H49.153H458.847H487.848V491.737H298.22C292.701 491.737 288.227 496.273 288.227 501.869C288.227 507.465 292.701 512.001 298.22 512.001H497.841C503.36 512.001 507.834 507.465 507.834 501.869V460.549C507.835 454.952 503.361 450.416 497.841 450.416ZM404.402 408.657H383.416V232.571H404.402V408.657ZM284.48 408.657V232.571H295.58C301.099 232.571 305.573 228.035 305.573 222.439V191.143H342.334V222.439C342.334 228.035 346.808 232.571 352.327 232.571H363.427V408.657H284.48ZM144.571 408.657V232.571H155.671C161.19 232.571 165.664 228.035 165.664 222.439V191.143H202.425V222.439C202.425 228.035 206.899 232.571 212.418 232.571H223.518V408.657H144.571ZM222.413 212.307V191.142H285.587V212.307H222.413ZM243.507 232.571H264.493V408.657H243.507V232.571ZM425.496 212.307H362.322V191.142H425.496V212.307ZM254 22.634L456.212 170.879H51.788L254 22.634ZM82.504 191.143H145.678V212.308H82.504V191.143ZM103.598 232.571H124.584V408.657H103.598V232.571ZM59.146 450.416V428.92H448.853V450.416H59.146Z" fill="#003566"></path><path d="M254 150.483C278.353 150.483 298.167 130.396 298.167 105.706C298.167 81.016 278.353 60.928 254 60.928C229.647 60.928 209.833 81.015 209.833 105.705C209.833 130.395 229.647 150.483 254 150.483ZM254 81.191C267.333 81.191 278.18 92.188 278.18 105.705C278.18 119.222 267.333 130.219 254 130.219C240.667 130.219 229.82 119.222 229.82 105.705C229.82 92.188 240.667 81.191 254 81.191Z" fill="#003566"></path></svg> 