<?xml version="1.0" encoding="UTF-8"?> <svg xmlns="http://www.w3.org/2000/svg" width="430" height="576" viewBox="0 0 430 576" fill="none"><path d="M214.855 0C165.749 0 117.736 17.0213 79.6625 47.9284C71.1935 54.8055 81.827 67.9039 90.2982 61.0301C218.037 -43.443 413.254 49.4212 412.65 214.687C412.651 315.958 359.289 407.477 327.482 453.018C279.125 522.252 231.001 559.125 214.855 559.125C179.219 553.081 128.373 494.585 101.76 457.488C48.14 387.84 -33.8286 200.877 60.3192 91.2274C67.1345 82.7089 53.9562 72.1688 47.141 80.6873C-52.7613 197.546 30.1524 391.765 88.0201 467.281C132.189 529.261 186.716 576 214.855 576C231.678 576 254.777 558.45 271.193 543.728C346.563 471.436 425.783 356.439 429.53 214.686C429.526 96.3068 333.225 0 214.855 0V0Z" fill="#003566"></path><path d="M316.55 326.778C415.454 235.125 349.867 67.6835 214.853 67.7769C16.5724 75.9883 16.6231 358.539 214.856 366.723C236.886 366.723 258.119 362.029 277.965 352.771C287.852 348.16 280.717 332.866 270.83 337.478C184.799 378.853 81.1204 312.819 82.2668 217.248C82.2657 144.134 141.746 84.6508 214.856 84.6508C334.636 84.5889 392.808 233.101 305.066 314.413C297.072 321.839 308.556 334.201 316.55 326.778V326.778Z" fill="#003566"></path><path d="M317.556 185.521C316.427 182.044 313.187 179.691 309.532 179.691H243.335L222.878 116.729C220.407 109.12 209.301 109.122 206.829 116.729L186.373 179.691H120.176C112.177 179.691 108.746 190.252 115.216 194.953L168.77 233.865L148.315 296.828C145.842 304.436 154.828 310.962 161.299 306.261L214.854 267.348L268.408 306.261C274.879 310.962 283.864 304.435 281.392 296.828L260.935 233.865L314.489 194.953C317.448 192.806 318.686 188.998 317.556 185.521V185.521ZM214.855 246.491L188.61 227.422L198.635 196.567H231.074L241.099 227.422L214.855 246.491ZM214.855 146.644L225.593 179.692H204.118L214.855 146.644ZM146.144 196.567H180.892L174.256 216.992L146.144 196.567ZM183.127 244.296L200.5 256.92L172.39 277.345L183.127 244.296ZM229.209 256.92L246.583 244.296L257.321 277.345L229.209 256.92ZM255.454 216.991L248.818 196.566H283.564L255.454 216.991Z" fill="#003566"></path></svg> 